<?xml version="1.0" encoding="UTF-8" standalone="no"?>
<!DOCTYPE svg PUBLIC "-//W3C//DTD SVG 1.1//EN"
 "http://www.w3.org/Graphics/SVG/1.1/DTD/svg11.dtd">
<!-- Generated by graphviz version 5.0.0 (20220707.1540)
 -->
<!-- Title: StorageDiagram Pages: 1 -->
<svg width="1599pt" height="204pt"
 viewBox="0.00 0.00 1598.63 204.00" xmlns="http://www.w3.org/2000/svg" xmlns:xlink="http://www.w3.org/1999/xlink">
<g id="graph0" class="graph" transform="scale(1 1) rotate(0) translate(4 200)">
<title>StorageDiagram</title>
<polygon fill="white" stroke="transparent" points="-4,4 -4,-200 1594.63,-200 1594.63,4 -4,4"/>
<!-- 3 -->
<g id="node1" class="node">
<title>3</title>
<polygon fill="#f2f2f2" stroke="black" points="0,-21.9 0,-195.5 802.52,-195.5 802.52,-21.9 0,-21.9"/>
<text text-anchor="middle" x="401.26" y="-178.9" font-family="Courier New" font-size="14.00">GasContract &lt;&lt;Contract&gt;&gt;</text>
<polyline fill="none" stroke="black" points="0,-170.7 802.52,-170.7 "/>
<text text-anchor="middle" x="24.8" y="-154.1" font-family="Courier New" font-size="14.00">slot</text>
<polyline fill="none" stroke="black" points="0,-145.9 49.61,-145.9 "/>
<text text-anchor="middle" x="24.8" y="-129.3" font-family="Courier New" font-size="14.00">0</text>
<polyline fill="none" stroke="black" points="0,-121.1 49.61,-121.1 "/>
<text text-anchor="middle" x="24.8" y="-104.5" font-family="Courier New" font-size="14.00">1&#45;5</text>
<polyline fill="none" stroke="black" points="0,-96.3 49.61,-96.3 "/>
<text text-anchor="middle" x="24.8" y="-79.7" font-family="Courier New" font-size="14.00">6</text>
<polyline fill="none" stroke="black" points="0,-71.5 49.61,-71.5 "/>
<text text-anchor="middle" x="24.8" y="-54.9" font-family="Courier New" font-size="14.00">7</text>
<polyline fill="none" stroke="black" points="0,-46.7 49.61,-46.7 "/>
<text text-anchor="middle" x="24.8" y="-30.1" font-family="Courier New" font-size="14.00">8</text>
<polyline fill="none" stroke="black" points="49.61,-21.9 49.61,-170.7 "/>
<text text-anchor="middle" x="426.06" y="-154.1" font-family="Courier New" font-size="14.00">type: &lt;inherited contract&gt;.variable (bytes)</text>
<polyline fill="none" stroke="black" points="49.61,-145.9 802.52,-145.9 "/>
<text text-anchor="middle" x="120.62" y="-129.3" font-family="Courier New" font-size="14.00">unallocated (9)</text>
<polyline fill="none" stroke="black" points="191.63,-121.1 191.63,-145.9 "/>
<text text-anchor="middle" x="279.44" y="-129.3" font-family="Courier New" font-size="14.00">address: Owner (20)</text>
<polyline fill="none" stroke="black" points="367.25,-121.1 367.25,-145.9 "/>
<text text-anchor="middle" x="480.27" y="-129.3" font-family="Courier New" font-size="14.00">uint8: paymentCounter (1)</text>
<polyline fill="none" stroke="black" points="593.29,-121.1 593.29,-145.9 "/>
<text text-anchor="middle" x="697.9" y="-129.3" font-family="Courier New" font-size="14.00">uint16: totalSupply (2)</text>
<polyline fill="none" stroke="black" points="49.61,-121.1 802.52,-121.1 "/>
<text text-anchor="middle" x="426.03" y="-104.5" font-family="Courier New" font-size="14.00">address[5]: administrators (160)</text>
<polyline fill="none" stroke="black" points="49.61,-96.3 802.52,-96.3 "/>
<text text-anchor="middle" x="425.93" y="-79.7" font-family="Courier New" font-size="14.00">mapping(address=&gt;uint16): balances (32)</text>
<polyline fill="none" stroke="black" points="49.61,-71.5 802.52,-71.5 "/>
<text text-anchor="middle" x="426.03" y="-54.9" font-family="Courier New" font-size="14.00">mapping(address=&gt;Payment[]): payments (32)</text>
<polyline fill="none" stroke="black" points="49.61,-46.7 802.52,-46.7 "/>
<text text-anchor="middle" x="425.93" y="-30.1" font-family="Courier New" font-size="14.00">mapping(address=&gt;uint8): whitelist (32)</text>
</g>
<!-- 1 -->
<g id="node2" class="node">
<title>1</title>
<polygon fill="#f2f2f2" stroke="black" points="1055.35,-93.5 1055.35,-167.9 1373.8,-167.9 1373.8,-93.5 1055.35,-93.5"/>
<text text-anchor="middle" x="1214.57" y="-151.3" font-family="Courier New" font-size="14.00">address[5]: administrators &lt;&lt;Array&gt;&gt;</text>
<polyline fill="none" stroke="black" points="1055.35,-143.1 1373.8,-143.1 "/>
<text text-anchor="middle" x="1088.65" y="-126.5" font-family="Courier New" font-size="14.00">slot</text>
<polyline fill="none" stroke="black" points="1055.35,-118.3 1121.95,-118.3 "/>
<text text-anchor="middle" x="1088.65" y="-101.7" font-family="Courier New" font-size="14.00">1</text>
<polyline fill="none" stroke="black" points="1121.95,-93.5 1121.95,-143.1 "/>
<text text-anchor="middle" x="1247.77" y="-126.5" font-family="Courier New" font-size="14.00">type: variable (bytes)</text>
<polyline fill="none" stroke="black" points="1121.95,-118.3 1373.59,-118.3 "/>
<text text-anchor="middle" x="1184.86" y="-101.7" font-family="Courier New" font-size="14.00">address (20)</text>
<polyline fill="none" stroke="black" points="1247.77,-93.5 1247.77,-118.3 "/>
<text text-anchor="middle" x="1310.68" y="-101.7" font-family="Courier New" font-size="14.00">address (20)</text>
</g>
<!-- 3&#45;&gt;1 -->
<g id="edge1" class="edge">
<title>3:9&#45;&gt;1</title>
<path fill="none" stroke="black" d="M802.52,-108.7C882.21,-108.7 970.46,-112.87 1044.7,-117.59"/>
<polygon fill="black" stroke="black" points="1044.88,-121.1 1055.08,-118.25 1045.32,-114.12 1044.88,-121.1"/>
</g>
<!-- 2 -->
<g id="node3" class="node">
<title>2</title>
<polygon fill="#f2f2f2" stroke="black" points="838.52,-0.5 838.52,-74.9 1590.63,-74.9 1590.63,-0.5 838.52,-0.5"/>
<text text-anchor="middle" x="1214.57" y="-58.3" font-family="Courier New" font-size="14.00">Payment &lt;&lt;Struct&gt;&gt;</text>
<polyline fill="none" stroke="black" points="838.52,-50.1 1590.63,-50.1 "/>
<text text-anchor="middle" x="863.32" y="-33.5" font-family="Courier New" font-size="14.00">slot</text>
<polyline fill="none" stroke="black" points="838.52,-25.3 888.12,-25.3 "/>
<text text-anchor="middle" x="863.32" y="-8.7" font-family="Courier New" font-size="14.00">0</text>
<polyline fill="none" stroke="black" points="888.12,-0.5 888.12,-50.1 "/>
<text text-anchor="middle" x="1239.38" y="-33.5" font-family="Courier New" font-size="14.00">type: variable (bytes)</text>
<polyline fill="none" stroke="black" points="888.12,-25.3 1590.63,-25.3 "/>
<text text-anchor="middle" x="963.33" y="-8.7" font-family="Courier New" font-size="14.00">unallocated (28)</text>
<polyline fill="none" stroke="black" points="1038.54,-0.5 1038.54,-25.3 "/>
<text text-anchor="middle" x="1122.16" y="-8.7" font-family="Courier New" font-size="14.00">uint16: amount (2)</text>
<polyline fill="none" stroke="black" points="1205.77,-0.5 1205.77,-25.3 "/>
<text text-anchor="middle" x="1297.78" y="-8.7" font-family="Courier New" font-size="14.00">uint8: paymentID (1)</text>
<polyline fill="none" stroke="black" points="1389.8,-0.5 1389.8,-25.3 "/>
<text text-anchor="middle" x="1490.21" y="-8.7" font-family="Courier New" font-size="14.00">uint8: paymentType (1)</text>
</g>
<!-- 3&#45;&gt;2 -->
<g id="edge2" class="edge">
<title>3:14&#45;&gt;2</title>
<path fill="none" stroke="black" d="M802.52,-58.7C810.99,-58.7 819.56,-58.65 828.2,-58.57"/>
<polygon fill="black" stroke="black" points="828.42,-62.07 838.38,-58.45 828.34,-55.07 828.42,-62.07"/>
</g>
</g>
</svg>
