<?xml version="1.0" encoding="UTF-8" standalone="no"?>
<!DOCTYPE svg PUBLIC "-//W3C//DTD SVG 1.1//EN"
 "http://www.w3.org/Graphics/SVG/1.1/DTD/svg11.dtd">
<!-- Generated by graphviz version 5.0.0 (20220707.1540)
 -->
<!-- Title: StorageDiagram Pages: 1 -->
<svg width="1223pt" height="204pt"
 viewBox="0.00 0.00 1222.97 204.00" xmlns="http://www.w3.org/2000/svg" xmlns:xlink="http://www.w3.org/1999/xlink">
<g id="graph0" class="graph" transform="scale(1 1) rotate(0) translate(4 200)">
<title>StorageDiagram</title>
<polygon fill="white" stroke="transparent" points="-4,4 -4,-200 1218.97,-200 1218.97,4 -4,4"/>
<!-- 3 -->
<g id="node1" class="node">
<title>3</title>
<polygon fill="#f2f2f2" stroke="black" points="0,-21.9 0,-195.5 426.86,-195.5 426.86,-21.9 0,-21.9"/>
<text text-anchor="middle" x="213.43" y="-178.9" font-family="Courier New" font-size="14.00">GasContract &lt;&lt;Contract&gt;&gt;</text>
<polyline fill="none" stroke="black" points="0,-170.7 426.86,-170.7 "/>
<text text-anchor="middle" x="24.8" y="-154.1" font-family="Courier New" font-size="14.00">slot</text>
<polyline fill="none" stroke="black" points="0,-145.9 49.61,-145.9 "/>
<text text-anchor="middle" x="24.8" y="-129.3" font-family="Courier New" font-size="14.00">0</text>
<polyline fill="none" stroke="black" points="0,-121.1 49.61,-121.1 "/>
<text text-anchor="middle" x="24.8" y="-104.5" font-family="Courier New" font-size="14.00">1&#45;5</text>
<polyline fill="none" stroke="black" points="0,-96.3 49.61,-96.3 "/>
<text text-anchor="middle" x="24.8" y="-79.7" font-family="Courier New" font-size="14.00">6</text>
<polyline fill="none" stroke="black" points="0,-71.5 49.61,-71.5 "/>
<text text-anchor="middle" x="24.8" y="-54.9" font-family="Courier New" font-size="14.00">7</text>
<polyline fill="none" stroke="black" points="0,-46.7 49.61,-46.7 "/>
<text text-anchor="middle" x="24.8" y="-30.1" font-family="Courier New" font-size="14.00">8</text>
<polyline fill="none" stroke="black" points="49.61,-21.9 49.61,-170.7 "/>
<text text-anchor="middle" x="238.23" y="-154.1" font-family="Courier New" font-size="14.00">type: &lt;inherited contract&gt;.variable (bytes)</text>
<polyline fill="none" stroke="black" points="49.61,-145.9 426.86,-145.9 "/>
<text text-anchor="middle" x="124.82" y="-129.3" font-family="Courier New" font-size="14.00">unallocated (31)</text>
<polyline fill="none" stroke="black" points="200.03,-121.1 200.03,-145.9 "/>
<text text-anchor="middle" x="313.04" y="-129.3" font-family="Courier New" font-size="14.00">uint8: paymentCounter (1)</text>
<polyline fill="none" stroke="black" points="49.61,-121.1 426.86,-121.1 "/>
<text text-anchor="middle" x="238.03" y="-104.5" font-family="Courier New" font-size="14.00">address[5]: administrators (160)</text>
<polyline fill="none" stroke="black" points="49.61,-96.3 426.86,-96.3 "/>
<text text-anchor="middle" x="237.93" y="-79.7" font-family="Courier New" font-size="14.00">mapping(address=&gt;uint16): balances (32)</text>
<polyline fill="none" stroke="black" points="49.61,-71.5 426.86,-71.5 "/>
<text text-anchor="middle" x="238.03" y="-54.9" font-family="Courier New" font-size="14.00">mapping(address=&gt;Payment[]): payments (32)</text>
<polyline fill="none" stroke="black" points="49.61,-46.7 426.86,-46.7 "/>
<text text-anchor="middle" x="237.93" y="-30.1" font-family="Courier New" font-size="14.00">mapping(address=&gt;uint8): whitelist (32)</text>
</g>
<!-- 1 -->
<g id="node2" class="node">
<title>1</title>
<polygon fill="#f2f2f2" stroke="black" points="679.69,-93.5 679.69,-167.9 998.14,-167.9 998.14,-93.5 679.69,-93.5"/>
<text text-anchor="middle" x="838.92" y="-151.3" font-family="Courier New" font-size="14.00">address[5]: administrators &lt;&lt;Array&gt;&gt;</text>
<polyline fill="none" stroke="black" points="679.69,-143.1 998.14,-143.1 "/>
<text text-anchor="middle" x="713" y="-126.5" font-family="Courier New" font-size="14.00">slot</text>
<polyline fill="none" stroke="black" points="679.69,-118.3 746.3,-118.3 "/>
<text text-anchor="middle" x="713" y="-101.7" font-family="Courier New" font-size="14.00">1</text>
<polyline fill="none" stroke="black" points="746.3,-93.5 746.3,-143.1 "/>
<text text-anchor="middle" x="872.12" y="-126.5" font-family="Courier New" font-size="14.00">type: variable (bytes)</text>
<polyline fill="none" stroke="black" points="746.3,-118.3 997.93,-118.3 "/>
<text text-anchor="middle" x="809.21" y="-101.7" font-family="Courier New" font-size="14.00">address (20)</text>
<polyline fill="none" stroke="black" points="872.12,-93.5 872.12,-118.3 "/>
<text text-anchor="middle" x="935.02" y="-101.7" font-family="Courier New" font-size="14.00">address (20)</text>
</g>
<!-- 3&#45;&gt;1 -->
<g id="edge1" class="edge">
<title>3:7&#45;&gt;1</title>
<path fill="none" stroke="black" d="M426.86,-108.7C506.55,-108.7 594.81,-112.87 669.05,-117.59"/>
<polygon fill="black" stroke="black" points="669.22,-121.1 679.43,-118.25 669.67,-114.12 669.22,-121.1"/>
</g>
<!-- 2 -->
<g id="node3" class="node">
<title>2</title>
<polygon fill="#f2f2f2" stroke="black" points="462.86,-0.5 462.86,-74.9 1214.97,-74.9 1214.97,-0.5 462.86,-0.5"/>
<text text-anchor="middle" x="838.92" y="-58.3" font-family="Courier New" font-size="14.00">Payment &lt;&lt;Struct&gt;&gt;</text>
<polyline fill="none" stroke="black" points="462.86,-50.1 1214.97,-50.1 "/>
<text text-anchor="middle" x="487.67" y="-33.5" font-family="Courier New" font-size="14.00">slot</text>
<polyline fill="none" stroke="black" points="462.86,-25.3 512.47,-25.3 "/>
<text text-anchor="middle" x="487.67" y="-8.7" font-family="Courier New" font-size="14.00">0</text>
<polyline fill="none" stroke="black" points="512.47,-0.5 512.47,-50.1 "/>
<text text-anchor="middle" x="863.72" y="-33.5" font-family="Courier New" font-size="14.00">type: variable (bytes)</text>
<polyline fill="none" stroke="black" points="512.47,-25.3 1214.97,-25.3 "/>
<text text-anchor="middle" x="587.68" y="-8.7" font-family="Courier New" font-size="14.00">unallocated (28)</text>
<polyline fill="none" stroke="black" points="662.89,-0.5 662.89,-25.3 "/>
<text text-anchor="middle" x="746.5" y="-8.7" font-family="Courier New" font-size="14.00">uint16: amount (2)</text>
<polyline fill="none" stroke="black" points="830.12,-0.5 830.12,-25.3 "/>
<text text-anchor="middle" x="922.13" y="-8.7" font-family="Courier New" font-size="14.00">uint8: paymentID (1)</text>
<polyline fill="none" stroke="black" points="1014.14,-0.5 1014.14,-25.3 "/>
<text text-anchor="middle" x="1114.56" y="-8.7" font-family="Courier New" font-size="14.00">uint8: paymentType (1)</text>
</g>
<!-- 3&#45;&gt;2 -->
<g id="edge2" class="edge">
<title>3:12&#45;&gt;2</title>
<path fill="none" stroke="black" d="M426.86,-58.7C435.34,-58.7 443.91,-58.65 452.55,-58.57"/>
<polygon fill="black" stroke="black" points="452.77,-62.07 462.73,-58.45 452.68,-55.07 452.77,-62.07"/>
</g>
</g>
</svg>
